<?xml version="1.0" encoding="UTF-8"?>
<svg version="1.1" xmlns="http://www.w3.org/2000/svg" width="1414" height="2000">
<path d="M0 0 C466.62 0 933.24 0 1414 0 C1414 660 1414 1320 1414 2000 C947.38 2000 480.76 2000 0 2000 C0 1340 0 680 0 0 Z " fill="#FEFEFE" transform="translate(0,0)"/>
<path d="M0 0 C237.27 0 474.54 0 719 0 C719 660 719 1320 719 2000 C495.92 2000 272.84 2000 43 2000 C42.01 1994.39 41.02 1988.78 40 1983 C33.07476472 1963.57086769 22.02620606 1948.36602095 3.33203125 1939.1015625 C-7.038245 1934.46490682 -16.75439456 1932.81242016 -28 1932 C-28 1932.99 -28 1933.98 -28 1935 C-198.28 1935 -368.56 1935 -544 1935 C-544 1933.68 -544 1932.36 -544 1931 C-544.67804688 1930.97421875 -545.35609375 1930.9484375 -546.0546875 1930.921875 C-559.70106478 1930.09023982 -568.85863921 1924.52042352 -578.25 1914.8125 C-583.86534567 1908.30049234 -588.18844919 1899.00299426 -588.0625 1890.3125 C-588.05347656 1889.50425781 -588.04445313 1888.69601562 -588.03515625 1887.86328125 C-588.02355469 1887.24839844 -588.01195312 1886.63351562 -588 1886 C-590.64 1886 -593.28 1886 -596 1886 C-596.0597117 1850.04288218 -595.95534938 1814.0920517 -595.62768555 1778.13623047 C-595.58335394 1773.26320226 -595.54175667 1768.39016306 -595.50268555 1763.51708984 C-595.26862116 1734.33534824 -594.89749257 1705.16958254 -594 1676 C-592.02 1676 -590.04 1676 -588 1676 C-588.08701172 1675.01773437 -588.08701172 1675.01773437 -588.17578125 1674.015625 C-588.70635706 1663.28283429 -584.92106136 1654.32294036 -578.08984375 1646.1015625 C-569.38644036 1637.34935498 -558.88446497 1631.31173561 -546.4375 1630.875 C-545.633125 1630.91625 -544.82875 1630.9575 -544 1631 C-544 1629.02 -544 1627.04 -544 1625 C-177.7 1625 188.6 1625 566 1625 C566 1627.31 566 1629.62 566 1632 C585.36346081 1631.19086403 600.36131313 1625.08355893 614.0625 1611.0625 C622.19651187 1601.60813751 628.04763605 1588.53832502 628.625 1576.125 C628.66367188 1575.43664063 628.70234375 1574.74828125 628.7421875 1574.0390625 C628.83548166 1572.35976754 628.91878238 1570.67992233 629 1569 C626.36 1569 623.72 1569 621 1569 C620.96917672 1548.25000637 620.94895849 1527.50001288 620.9375 1506.75 C620.9370657 1505.98590285 620.93663139 1505.22180571 620.93618393 1504.4345541 C620.91482956 1465.8290615 620.91813697 1427.22715601 621.5 1388.625 C621.51195782 1387.83091232 621.52391563 1387.03682465 621.53623581 1386.21867371 C621.67426807 1377.14547514 621.82635649 1368.07259438 622 1359 C624.31 1359 626.62 1359 629 1359 C628.74562714 1349.57548572 628.0208513 1341.65131555 624 1333 C623.60039063 1332.10925781 623.20078125 1331.21851563 622.7890625 1330.30078125 C614.91461055 1314.34705057 601.42249197 1304.21151827 584.94921875 1298.15625 C578.78470124 1296.14941385 572.44111789 1296.01827267 566 1296 C566 1297.65 566 1299.3 566 1301 C198.71 1301 -168.58 1301 -547 1301 C-547 1299.02 -547 1297.04 -547 1295 C-548.60875 1295.12375 -548.60875 1295.12375 -550.25 1295.25 C-561.5254944 1295.1902359 -571.33397929 1289.45035902 -579.2578125 1281.828125 C-586.55937533 1274.01464448 -592.1653221 1263.85306198 -592.1875 1252.875 C-592.125625 1251.92625 -592.06375 1250.9775 -592 1250 C-593.98 1250 -595.96 1250 -598 1250 C-598.20221671 1209.17575098 -597.66167332 1168.36508355 -597.10923576 1127.54570353 C-596.98570496 1118.40823539 -596.86598633 1109.2707183 -596.74648476 1100.13319671 C-596.50169835 1081.42207649 -596.25244923 1062.71101833 -596 1044 C-593.36 1044 -590.72 1044 -588 1044 C-588.06960938 1043.10861328 -588.06960938 1043.10861328 -588.140625 1042.19921875 C-588.58270215 1032.04723281 -585.50109228 1023.8889321 -578.9765625 1016.12890625 C-570.76189934 1007.28109712 -562.01457774 1001.20267259 -550 999 C-546.5 998.875 -546.5 998.875 -544 999 C-544 998.01 -544 997.02 -544 996 C-177.7 996 188.6 996 566 996 C566 997.32 566 998.64 566 1000 C584.43071641 998.39628831 600.33234581 993.50769704 613.375 979.6875 C624.10376558 966.67264724 628.55337327 953.54752046 629 937 C627.02 937 625.04 937 623 937 C622.97646723 914.8831537 622.95892205 892.76630951 622.94818783 870.64945316 C622.94306762 860.37640523 622.93610818 850.10336515 622.92456055 839.83032227 C622.9144812 830.85909962 622.90811565 821.88788268 622.90591151 812.91665453 C622.90462648 808.18215664 622.90168532 803.44767503 622.89426994 798.71318245 C622.85972058 775.78784486 623.12912247 752.91022374 624 730 C626.97 730 629.94 730 633 730 C631.43257104 711.775714 625.84160225 695.43331188 612.1328125 682.6171875 C607.10885646 678.80781424 601.58361499 675.88915961 596 673 C595.15308594 672.55140625 594.30617188 672.1028125 593.43359375 671.640625 C585.98008901 668.15980045 578.08754421 668.20068348 570 668 C570 670.64 570 673.28 570 676 C205.02 676 -159.96 676 -536 676 C-536 674.02 -536 672.04 -536 670 C-537.27875 669.896875 -538.5575 669.79375 -539.875 669.6875 C-549.89957697 668.51090646 -557.13232643 665.35516971 -565 659 C-565.97646484 658.21302734 -565.97646484 658.21302734 -566.97265625 657.41015625 C-573.80040106 651.27268894 -578.27882791 641.95009485 -580 633 C-580.13386978 630.30826117 -580.09468252 627.69845168 -580 625 C-582.64 625 -585.28 625 -588 625 C-588.08367406 590.3611471 -587.86780968 555.7251557 -587.61115968 521.08753133 C-587.56713948 515.10349096 -587.52716481 509.11942828 -587.48800808 503.1353544 C-587.44913602 497.22571929 -587.40720703 491.3161104 -587.36312145 485.4065119 C-587.33727477 481.93469662 -587.31247429 478.46288412 -587.29092598 474.99103928 C-587.16262674 454.98015041 -586.68403177 434.99839138 -586 415 C-584.02 415 -582.04 415 -580 415 C-580.05800781 414.41734375 -580.11601563 413.8346875 -580.17578125 413.234375 C-580.72093116 403.32822238 -576.94368736 394.50934596 -570.71875 386.87109375 C-562.65698599 378.09476429 -553.82702949 372.16828874 -542 370 C-538.5 369.875 -538.5 369.875 -536 370 C-536 368.68 -536 367.36 -536 366 C-172.34 366 191.32 366 566 366 C566 367.65 566 369.3 566 371 C585.36346081 370.19086403 600.36131313 364.08355893 614.0625 350.0625 C622.19651187 340.60813751 628.04763605 327.53832502 628.625 315.125 C628.66367188 314.43664062 628.70234375 313.74828125 628.7421875 313.0390625 C628.83548166 311.35976754 628.91878238 309.67992233 629 308 C626.36 308 623.72 308 621 308 C620.96829828 293.81251089 620.94865421 279.62502006 620.9375 265.4375 C620.93664398 264.35667019 620.93578796 263.27584038 620.93490601 262.16225815 C620.90823632 223.8767282 621.13140882 185.59617358 621.5 147.3125 C621.51195782 146.06992809 621.52391563 144.82735619 621.53623581 143.54713058 C621.68304784 128.36467165 621.83753936 113.18229933 622 98 C624.31 98 626.62 98 629 98 C627.63996854 79.73092068 623.03508867 63.85386967 609.22265625 50.83984375 C598.4360705 41.91105308 586.62923096 36.34957586 572.6875 35.4375 C571.43324219 35.35371094 570.17898438 35.26992188 568.88671875 35.18359375 C567.45779297 35.09271484 567.45779297 35.09271484 566 35 C566 36.98 566 38.96 566 41 C393.41 41 220.82 41 43 41 C43 39.02 43 37.04 43 35 C41.700625 35.061875 40.40125 35.12375 39.0625 35.1875 C28.53390387 35.13814721 18.84432051 29.84249316 11.25 22.75 C5.56567221 16.70284278 0 8.46349958 0 0 Z " fill="#FEFEFE" transform="translate(695,0)"/>
<path d="M0 0 C5.94 0 11.88 0 18 0 C18.98228533 17.18999323 13.91474683 29.70096381 3 43 C-6.66164965 53.3964353 -19.87752931 60.78726266 -34 63 C-35.93651019 63.06533435 -37.87502861 63.08584303 -39.8125 63.0625 C-40.78832031 63.05347656 -41.76414062 63.04445313 -42.76953125 63.03515625 C-43.87361328 63.01775391 -43.87361328 63.01775391 -45 63 C-45 61.68 -45 60.36 -45 59 C-411.3 59 -777.6 59 -1155 59 C-1155 59.99 -1155 60.98 -1155 62 C-1156.09957031 62.20753906 -1157.19914062 62.41507813 -1158.33203125 62.62890625 C-1170.99910761 65.19647929 -1181.708461 69.55960666 -1190 80 C-1195.67127898 88.56889966 -1198.39283398 96.78286138 -1199 107 C-1201.64 107 -1204.28 107 -1207 107 C-1206.99777939 107.831259 -1206.99555878 108.66251801 -1206.99327087 109.51896667 C-1206.82116135 177.36201287 -1207.42805795 245.17398584 -1209 313 C-1207.02 313 -1205.04 313 -1203 313 C-1202.87044922 314.10794922 -1202.87044922 314.10794922 -1202.73828125 315.23828125 C-1200.90143754 328.50062988 -1195.51504643 340.0707477 -1184.984375 348.62109375 C-1176.71214114 354.36931925 -1167.9125894 356.95656954 -1158 358 C-1158 359.98 -1158 361.96 -1158 364 C-790.71 364 -423.42 364 -45 364 C-45 362.35 -45 360.7 -45 359 C-28.19949447 357.71315277 -14.52212216 363.08495438 -1.5703125 374.05859375 C7.24746479 382.38649452 15.90892138 394.78369858 18 407 C18.06898242 409.59373914 18.09434752 412.15810197 18.0625 414.75 C18.05798828 415.44738281 18.05347656 416.14476562 18.04882812 416.86328125 C18.0371002 418.57555803 18.01916653 420.28779033 18 422 C15.69 422 13.38 422 11 422 C11.00222061 422.65457184 11.00444122 423.30914368 11.00672913 423.98355103 C11.03610744 433.19735559 11.05256757 442.41115641 11.0625 451.625 C11.06335602 452.41296463 11.06421204 453.20092926 11.06509399 454.01277161 C11.10172388 492.59308021 10.80033826 531.17118018 10.5 569.75 C10.49402628 570.51823625 10.48805257 571.28647249 10.48189783 572.07798862 C10.32647736 592.0520352 10.16588748 612.02603752 10 632 C12.64 632 15.28 632 18 632 C19.05093205 648.88497499 13.83993228 662.21052048 2.8125 675.125 C-5.90804314 684.41332475 -18.04766468 693.27040135 -31 695 C-33.43666765 695.06701506 -35.87501742 695.08528021 -38.3125 695.0625 C-39.56675781 695.05347656 -40.82101562 695.04445313 -42.11328125 695.03515625 C-43.54220703 695.01775391 -43.54220703 695.01775391 -45 695 C-45 692.69 -45 690.38 -45 688 C-411.3 688 -777.6 688 -1155 688 C-1155 689.98 -1155 691.96 -1155 694 C-1156.43279297 694.22042969 -1156.43279297 694.22042969 -1157.89453125 694.4453125 C-1169.92929854 696.53309865 -1180.72187475 700.5168312 -1189 710 C-1194.11268066 717.50735519 -1197.95452333 724.71181886 -1198.625 733.875 C-1198.69976563 734.84179688 -1198.77453125 735.80859375 -1198.8515625 736.8046875 C-1198.90054687 737.52914062 -1198.94953125 738.25359375 -1199 739 C-1200.98 739 -1202.96 739 -1205 739 C-1204.99770889 739.88881866 -1204.99541779 740.77763733 -1204.99305725 741.69338989 C-1204.92883429 771.17486406 -1205.13787547 800.65224281 -1205.40385818 830.13239288 C-1205.43786083 833.91514161 -1205.47117796 837.69789589 -1205.50436401 841.48065186 C-1205.8204061 877.32421942 -1206.20516408 913.16337854 -1207 949 C-1204.36 949 -1201.72 949 -1199 949 C-1198.87044922 950.09054687 -1198.87044922 950.09054687 -1198.73828125 951.203125 C-1196.75079758 965.42548521 -1191.81539048 976.08852522 -1180.359375 985.0703125 C-1172.50231944 990.43555901 -1164.36317749 992.73470574 -1155 994 C-1155 995.32 -1155 996.64 -1155 998 C-984.72 998 -814.44 998 -639 998 C-639 997.01 -639 996.02 -639 995 C-619.86511822 994.34519416 -603.65666269 1000.85873621 -589.46875 1013.60351562 C-585.8248485 1017.06812942 -582.82379109 1020.85359013 -580 1025 C-579.45988281 1025.77730469 -578.91976562 1026.55460937 -578.36328125 1027.35546875 C-571.0877175 1038.58952562 -568.40397557 1049.80346461 -568 1063 C-574.93 1063 -581.86 1063 -589 1063 C-589.804375 1059.3803125 -589.804375 1059.3803125 -590.625 1055.6875 C-594.26113548 1040.5584693 -601.78253569 1030.12449641 -615 1022 C-622.48430211 1017.55360649 -630.4830675 1016.85281538 -639 1016 C-639 1012.7 -639 1009.4 -639 1006 C-809.28 1006 -979.56 1006 -1155 1006 C-1155 1007.98 -1155 1009.96 -1155 1012 C-1165.18224256 1012.68695789 -1172.81914766 1011.45959618 -1182 1007 C-1183.00933594 1006.5153125 -1184.01867188 1006.030625 -1185.05859375 1005.53125 C-1199.36181978 997.9425423 -1210.1979767 985.50975002 -1215.375 970.12890625 C-1217.51141805 963.10899553 -1218.62129428 956.33472418 -1218 949 C-1215.69 949 -1213.38 949 -1211 949 C-1211.00229111 947.91070033 -1211.00458221 946.82140066 -1211.00694275 945.69909191 C-1211.05630323 919.76855041 -1210.9288607 893.84623192 -1210.59614182 867.91790223 C-1210.53814715 863.35241161 -1210.48325906 858.7868834 -1210.42797852 854.22135925 C-1210.32382252 845.65564204 -1210.21705335 837.08995969 -1210.10923481 828.52428788 C-1209.98619689 818.73873854 -1209.86624042 808.95315209 -1209.74648476 799.16756213 C-1209.50097545 779.11166638 -1209.25178504 759.05581788 -1209 739 C-1211.97 739 -1214.94 739 -1218 739 C-1218.79395403 722.15053114 -1213.44480936 708.31919686 -1202.40234375 695.53125 C-1193.40334868 686.04938203 -1179.57146009 676.48340708 -1166.1328125 675.8046875 C-1164.79673363 675.81778631 -1163.46071923 675.84134816 -1162.125 675.875 C-1161.43664063 675.88402344 -1160.74828125 675.89304687 -1160.0390625 675.90234375 C-1158.35922162 675.92567487 -1156.67956254 675.96153674 -1155 676 C-1155 677.65 -1155 679.3 -1155 681 C-788.7 681 -422.4 681 -45 681 C-45 679.68 -45 678.36 -45 677 C-44.12859375 676.85304688 -43.2571875 676.70609375 -42.359375 676.5546875 C-29.53435434 674.13958621 -17.11659444 669.6384705 -9.28515625 658.578125 C-3.94196099 649.95585392 -1.39685997 642.00809081 0 632 C1.98 632 3.96 632 6 632 C5.99777939 631.21268997 5.99555878 630.42537994 5.99327087 629.61421204 C5.96460676 618.84698466 5.94763508 608.0797599 5.9375 597.3125 C5.93664398 596.40993595 5.93578796 595.5073719 5.93490601 594.57745743 C5.90292751 556.11239492 6.17621848 517.65084835 6.5 479.1875 C6.50597372 478.47684529 6.51194743 477.76619058 6.51810217 477.03400087 C6.67243227 458.68927801 6.83292241 440.3446114 7 422 C4.69 422 2.38 422 0 422 C-0.22042969 420.56720703 -0.22042969 420.56720703 -0.4453125 419.10546875 C-2.73249963 405.92128086 -7.46492046 394.15665389 -18.69140625 386.05859375 C-25.52466798 381.79114607 -32.11622325 379.48750505 -40 378 C-40.93972656 377.81179688 -41.87945313 377.62359375 -42.84765625 377.4296875 C-43.55792969 377.28789063 -44.26820312 377.14609375 -45 377 C-45 375.02 -45 373.04 -45 371 C-412.29 371 -779.58 371 -1158 371 C-1158 372.65 -1158 374.3 -1158 376 C-1174.76204633 376.90469815 -1187.64228194 372.61069407 -1200.25 361.5625 C-1201.84651452 360.05550966 -1203.43129105 358.53591364 -1205 357 C-1205.83144531 356.22269531 -1205.83144531 356.22269531 -1206.6796875 355.4296875 C-1214.38303527 347.47650143 -1221.28378441 333.1569471 -1221.17578125 322.140625 C-1221.15902344 321.47546875 -1221.14226562 320.8103125 -1221.125 320.125 C-1221.11597656 319.43664063 -1221.10695313 318.74828125 -1221.09765625 318.0390625 C-1221.07432513 316.35922162 -1221.03846326 314.67956254 -1221 313 C-1218.03 313 -1215.06 313 -1212 313 C-1212.00222061 311.80559296 -1212.00444122 310.61118591 -1212.00672913 309.38058472 C-1212.03456071 293.87873124 -1212.05195839 278.37687465 -1212.0625 262.875 C-1212.06378403 261.00032043 -1212.06378403 261.00032043 -1212.06509399 259.08776855 C-1212.08766278 221.72228413 -1211.93481822 184.36302885 -1211.5 147 C-1211.48804218 145.97183922 -1211.47608437 144.94367844 -1211.46376419 143.88436127 C-1211.3198261 131.58943324 -1211.16581252 119.29465216 -1211 107 C-1213.31 107 -1215.62 107 -1218 107 C-1219.1139856 89.82605535 -1212.47717767 75.48407814 -1201.4765625 62.5703125 C-1192.53193609 53.28708825 -1178.62922835 44.29792088 -1165.46484375 43.890625 C-1161.9735182 43.87664572 -1158.49012153 43.91286798 -1155 44 C-1155 46.31 -1155 48.62 -1155 51 C-788.7 51 -422.4 51 -45 51 C-45 48.69 -45 46.38 -45 44 C-44.14019531 43.93683594 -43.28039063 43.87367188 -42.39453125 43.80859375 C-30.4392245 42.57003962 -19.15956177 38.18402111 -11.12109375 28.80859375 C-4.72696828 19.80341008 -1.8788547 10.8034145 0 0 Z " fill="#532A8B" transform="translate(1306,937)"/>
<path d="M0 0 C6.27 0 12.54 0 19 0 C19.680625 1.959375 20.36125 3.91875 21.0625 5.9375 C25.64596215 17.8157681 33.61522889 26.44922517 45.08984375 31.96484375 C50.55148842 33.90757642 56.2553269 34.445399 62 35 C62 36.98 62 38.96 62 41 C234.59 41 407.18 41 585 41 C585 39.02 585 37.04 585 35 C602.03247119 34.33735343 615.55543819 38.69040318 628.375 50.3125 C638.78721128 60.14784349 647.62114587 73.68663195 648.11328125 88.3828125 C648.12367719 91.59169419 648.08801198 94.79245229 648 98 C645.69 98 643.38 98 641 98 C641.00222061 99.17077591 641.00444122 100.34155182 641.00672913 101.54780579 C641.03465951 116.80269553 641.05199077 132.05758856 641.0625 147.3125 C641.06335602 148.54612904 641.06421204 149.77975807 641.06509399 151.05076981 C641.08841604 189.18242874 640.91900426 227.3081122 640.5 265.4375 C640.48804218 266.52630589 640.47608437 267.61511177 640.46376419 268.73691177 C640.31913908 281.82473124 640.16498647 294.91242167 640 308 C642.64 308 645.28 308 648 308 C649.05093205 324.88497499 643.83993228 338.21052048 632.8125 351.125 C624.09195686 360.41332475 611.95233532 369.27040135 599 371 C596.56333235 371.06701506 594.12498258 371.08528021 591.6875 371.0625 C590.43324219 371.05347656 589.17898438 371.04445313 587.88671875 371.03515625 C586.45779297 371.01775391 586.45779297 371.01775391 585 371 C585 369.35 585 367.7 585 366 C221.34 366 -142.32 366 -517 366 C-517 367.32 -517 368.64 -517 370 C-518.02738281 370.21914063 -519.05476563 370.43828125 -520.11328125 370.6640625 C-533.84976996 373.74247212 -545.84509358 378.36325343 -553.75390625 390.74609375 C-558.30993214 398.83715659 -560.30834369 405.79005025 -561 415 C-562.98 415 -564.96 415 -567 415 C-566.99903855 415.83720392 -566.99807711 416.67440784 -566.99708652 417.53698158 C-566.97754508 437.35495653 -567.02645408 457.17085991 -567.16899753 476.98844099 C-567.18396564 479.07528633 -567.19864184 481.16213355 -567.21324348 483.24898148 C-567.26493505 490.62547035 -567.31804033 498.00194767 -567.37231445 505.37841797 C-567.41627179 511.35822152 -567.45783966 517.33803631 -567.49731445 523.31787109 C-567.72170301 557.21934446 -568.02283315 591.10988896 -569 625 C-566.36 625 -563.72 625 -561 625 C-560.87044922 626.09054687 -560.87044922 626.09054687 -560.73828125 627.203125 C-558.73587499 641.53227071 -553.72922524 651.6882213 -542.5703125 661.03515625 C-534.78696455 666.6065193 -526.23336839 668.25724231 -517 670 C-517 671.98 -517 673.96 -517 676 C-152.02 676 212.96 676 589 676 C589 673.36 589 670.72 589 668 C605.39382652 666.62658102 618.2558585 671.51461493 631 682 C631.6084375 682.49628906 632.216875 682.99257813 632.84375 683.50390625 C642.69617687 692.43826607 649.90044677 705.92278274 652 719 C652.06533435 720.93651019 652.08584303 722.87502861 652.0625 724.8125 C652.05347656 725.78832031 652.04445313 726.76414062 652.03515625 727.76953125 C652.02355469 728.50558594 652.01195312 729.24164062 652 730 C649.03 730 646.06 730 643 730 C643.00229111 730.71262497 643.00458221 731.42524994 643.00694275 732.1594696 C643.08050636 759.46673464 642.84276896 786.7709719 642.59614182 814.07692337 C642.56221931 817.84366754 642.52887751 821.61041651 642.49563599 825.37716675 C642.16858042 862.25496491 641.75367319 899.12817506 641 936 C640.01 936 639.02 936 638 936 C637.9690026 917.02084188 637.94889841 898.04167921 637.9375 879.0625 C637.9370657 878.36005976 637.93663139 877.65761951 637.93618393 876.9338932 C637.91348561 839.2032885 637.97646113 801.47781434 638.5 763.75 C638.51195782 762.88756306 638.52391563 762.02512611 638.53623581 761.13655472 C638.67673845 751.09080097 638.82980102 741.04529705 639 731 C637.7934375 731.0309375 637.7934375 731.0309375 636.5625 731.0625 C634 731 634 731 633 730 C632.75099354 728.06494977 632.52643758 726.12674066 632.3125 724.1875 C630.55831707 712.42415565 624.91871267 702.35363726 615.49609375 695.0625 C607.26225486 689.44053319 598.81377057 687.09041895 589 686 C589 685.01 589 684.02 589 683 C224.02 683 -140.96 683 -517 683 C-517 684.65 -517 686.3 -517 688 C-532.09574143 689.03238353 -543.75506988 684.89811616 -556 676 C-556.94939453 675.32710937 -556.94939453 675.32710937 -557.91796875 674.640625 C-569.73158329 665.44925442 -577.43041067 650.58139979 -580 636 C-580.21108318 632.31522195 -580.19243237 628.68472349 -580 625 C-577.69 625 -575.38 625 -573 625 C-573.00229111 624.43720337 -573.00458221 623.87440674 -573.00694275 623.29455566 C-573.09346889 597.62273331 -572.82503848 571.95238428 -572.59614182 546.28188324 C-572.56228824 542.47619422 -572.52892076 538.67050117 -572.49563599 534.86480713 C-572.14466516 494.9073267 -571.68778156 454.95315341 -571 415 C-573.64 415 -576.28 415 -579 415 C-579.63676562 397.31206608 -575.3028702 383.25299285 -563 370 C-550.3748774 358.41810001 -537.00146206 351.33328903 -519.640625 351.859375 C-518.76921875 351.90578125 -517.8978125 351.9521875 -517 352 C-517 354.31 -517 356.62 -517 359 C-153.34 359 210.32 359 585 359 C585 357.02 585 355.04 585 353 C585.87140625 352.85304688 586.7428125 352.70609375 587.640625 352.5546875 C600.46564566 350.13958621 612.88340556 345.6384705 620.71484375 334.578125 C626.05803901 325.95585392 628.60314003 318.00809081 630 308 C631.98 308 633.96 308 636 308 C635.99777939 307.21268997 635.99555878 306.42537994 635.99327087 305.61421204 C635.96460676 294.84698466 635.94763508 284.0797599 635.9375 273.3125 C635.93664398 272.40993595 635.93578796 271.5073719 635.93490601 270.57745743 C635.90292751 232.11239492 636.17621848 193.65084835 636.5 155.1875 C636.50597372 154.47684529 636.51194743 153.76619058 636.51810217 153.03400087 C636.67243227 134.68927801 636.83292241 116.3446114 637 98 C634.69 98 632.38 98 630 98 C629.77957031 96.56720703 629.77957031 96.56720703 629.5546875 95.10546875 C627.26750037 81.92128086 622.53507954 70.15665389 611.30859375 62.05859375 C604.47533202 57.79114607 597.88377675 55.48750505 590 54 C589.06027344 53.81179687 588.12054687 53.62359375 587.15234375 53.4296875 C586.44207031 53.28789063 585.73179688 53.14609375 585 53 C585 51.68 585 50.36 585 49 C412.41 49 239.82 49 62 49 C62 50.65 62 52.3 62 54 C44.734636 54.81355118 31.89338656 49.27898621 19 38 C18.37222656 37.46761719 17.74445312 36.93523438 17.09765625 36.38671875 C8.92761284 28.92067001 2.43775484 17.80951819 0 7 C0 4.69 0 2.38 0 0 Z " fill="#4D2387" transform="translate(676,0)"/>
<path d="M0 0 C5.94 0 11.88 0 18 0 C18.98228533 17.18999323 13.91474683 29.70096381 3 43 C-6.66164965 53.3964353 -19.87752931 60.78726266 -34 63 C-35.93651019 63.06533435 -37.87502861 63.08584303 -39.8125 63.0625 C-40.78832031 63.05347656 -41.76414062 63.04445313 -42.76953125 63.03515625 C-43.87361328 63.01775391 -43.87361328 63.01775391 -45 63 C-45 61.35 -45 59.7 -45 58 C-410.97 58 -776.94 58 -1154 58 C-1154 56.02 -1154 54.04 -1154 52 C-788.03 52 -422.06 52 -45 52 C-45 49.36 -45 46.72 -45 44 C-44.14019531 43.93683594 -43.28039063 43.87367188 -42.39453125 43.80859375 C-30.4392245 42.57003962 -19.15956177 38.18402111 -11.12109375 28.80859375 C-4.72696828 19.80341008 -1.8788547 10.8034145 0 0 Z " fill="#4B2086" transform="translate(1306,937)"/>
<path d="M0 0 C6.27 0 12.54 0 19 0 C20.0209375 2.9390625 20.0209375 2.9390625 21.0625 5.9375 C25.64596215 17.8157681 33.61522889 26.44922517 45.08984375 31.96484375 C50.55148842 33.90757642 56.2553269 34.445399 62 35 C62 36.98 62 38.96 62 41 C234.59 41 407.18 41 585 41 C585 39.02 585 37.04 585 35 C602.03247119 34.33735343 615.55543819 38.69040318 628.375 50.3125 C638.78721128 60.14784349 647.62114587 73.68663195 648.11328125 88.3828125 C648.12367719 91.59169419 648.08801198 94.79245229 648 98 C645.69 98 643.38 98 641 98 C641.00222061 99.17077591 641.00444122 100.34155182 641.00672913 101.54780579 C641.03465951 116.80269553 641.05199077 132.05758856 641.0625 147.3125 C641.06335602 148.54612904 641.06421204 149.77975807 641.06509399 151.05076981 C641.08841604 189.18242874 640.91900426 227.3081122 640.5 265.4375 C640.48804218 266.52630589 640.47608437 267.61511177 640.46376419 268.73691177 C640.31913908 281.82473124 640.16498647 294.91242167 640 308 C638.68 308 637.36 308 636 308 C635.96738795 296.43751218 635.94838366 284.87502718 635.9375 273.3125 C635.93664398 272.40993595 635.93578796 271.5073719 635.93490601 270.57745743 C635.90292751 232.11239492 636.17621848 193.65084835 636.5 155.1875 C636.50597372 154.47684529 636.51194743 153.76619058 636.51810217 153.03400087 C636.67243227 134.68927801 636.83292241 116.3446114 637 98 C634.69 98 632.38 98 630 98 C629.77957031 96.56720703 629.77957031 96.56720703 629.5546875 95.10546875 C627.26750037 81.92128086 622.53507954 70.15665389 611.30859375 62.05859375 C604.47533202 57.79114607 597.88377675 55.48750505 590 54 C589.06027344 53.81179687 588.12054687 53.62359375 587.15234375 53.4296875 C586.44207031 53.28789063 585.73179687 53.14609375 585 53 C585 51.68 585 50.36 585 49 C412.41 49 239.82 49 62 49 C62 50.65 62 52.3 62 54 C44.734636 54.81355118 31.89338656 49.27898621 19 38 C18.37222656 37.46761719 17.74445312 36.93523438 17.09765625 36.38671875 C8.92761284 28.92067001 2.43775484 17.80951819 0 7 C0 4.69 0 2.38 0 0 Z " fill="#4B2186" transform="translate(676,0)"/>
<path d="M0 0 C6.27 0 12.54 0 19 0 C19.226875 1.7325 19.45375 3.465 19.6875 5.25 C21.92385601 18.26988086 27.18015854 27.86905921 37.640625 36.0703125 C45.49768056 41.43555901 53.63682251 43.73470574 63 45 C63 46.32 63 47.64 63 49 C233.28 49 403.56 49 579 49 C579 48.01 579 47.02 579 46 C598.13488178 45.34519416 614.34333731 51.85873621 628.53125 64.60351562 C632.1751515 68.06812942 635.17620891 71.85359013 638 76 C638.54011719 76.77730469 639.08023438 77.55460937 639.63671875 78.35546875 C646.9122825 89.58952562 649.59602443 100.80346461 650 114 C643.07 114 636.14 114 629 114 C628.195625 110.3803125 628.195625 110.3803125 627.375 106.6875 C623.73886452 91.5584693 616.21746431 81.12449641 603 73 C595.51569789 68.55360649 587.5169325 67.85281538 579 67 C579 63.7 579 60.4 579 57 C408.72 57 238.44 57 63 57 C63 58.98 63 60.96 63 63 C52.81775744 63.68695789 45.18085234 62.45959618 36 58 C34.99066406 57.5153125 33.98132813 57.030625 32.94140625 56.53125 C18.63818022 48.9425423 7.8020233 36.50975002 2.625 21.12890625 C0.46341261 14.02629331 -0.45597153 7.40953737 0 0 Z " fill="#562E8D" transform="translate(88,1886)"/>
<path d="M0 0 C6.27 0 12.54 0 19 0 C20.0209375 2.9390625 20.0209375 2.9390625 21.0625 5.9375 C25.64596215 17.8157681 33.61522889 26.44922517 45.08984375 31.96484375 C50.55148842 33.90757642 56.2553269 34.445399 62 35 C62 36.98 62 38.96 62 41 C234.59 41 407.18 41 585 41 C585 41.33 585 41.66 585 42 C412.74 42 240.48 42 63 42 C63 43.98 63 45.96 63 48 C235.26 48 407.52 48 585 48 C585 48.33 585 48.66 585 49 C412.41 49 239.82 49 62 49 C62 50.65 62 52.3 62 54 C44.734636 54.81355118 31.89338656 49.27898621 19 38 C18.37222656 37.46761719 17.74445312 36.93523438 17.09765625 36.38671875 C8.92761284 28.92067001 2.43775484 17.80951819 0 7 C0 4.69 0 2.38 0 0 Z " fill="#6C4A9C" transform="translate(676,0)"/>
<path d="M0 0 C1.98 0.495 1.98 0.495 4 1 C4.03119469 17.27082432 4.05118196 33.54164968 4.0625 49.8125 C4.06335602 51.03425179 4.06421204 52.25600357 4.06509399 53.51477814 C4.08853264 91.47093217 3.91674567 129.42110842 3.5 167.375 C3.48804218 168.4646619 3.47608437 169.55432381 3.46376419 170.67700577 C3.31904097 183.78479244 3.16486982 196.89245154 3 210 C1.68 210 0.36 210 -1 210 C-1.03261205 198.43751218 -1.05161634 186.87502718 -1.0625 175.3125 C-1.06335602 174.40993595 -1.06421204 173.5073719 -1.06509399 172.57745743 C-1.09707249 134.11239492 -0.82378152 95.65084835 -0.5 57.1875 C-0.49402628 56.47684529 -0.48805257 55.76619058 -0.48189783 55.03400087 C-0.32756773 36.68927801 -0.16707759 18.3446114 0 0 Z " fill="#603A94" transform="translate(1313,98)"/>
<path d="M0 0 C0.0237302 20.66366677 -0.02037129 41.32517964 -0.16899753 61.98844099 C-0.18396564 64.07528633 -0.19864184 66.16213355 -0.21324348 68.24898148 C-0.26493505 75.62547035 -0.31804033 83.00194767 -0.37231445 90.37841797 C-0.41627179 96.35822152 -0.45783966 102.33803631 -0.49731445 108.31787109 C-0.72170301 142.21934446 -1.02283315 176.10988896 -2 210 C-3.32 210 -4.64 210 -6 210 C-6.02438481 191.95725426 -5.97023012 173.91707563 -5.81640625 155.875 C-5.79636986 153.46451833 -5.77634555 151.05403655 -5.7563324 148.64355469 C-5.71434411 143.62857268 -5.67131682 138.61360078 -5.62768555 133.59863281 C-5.58402673 128.56153765 -5.54238802 123.52443257 -5.50268555 118.48730469 C-5.30459956 93.41052297 -5.07906518 68.33695292 -4.5 43.265625 C-4.47944109 42.37180115 -4.45888218 41.47797729 -4.43770027 40.55706787 C-4.12849501 27.36338513 -3.69444908 14.17975698 -3 1 C-1 0 -1 0 0 0 Z " fill="#5C3591" transform="translate(109,415)"/>
</svg>
