<svg width="1251" height="2081" viewBox="0 0 1251 2081" fill="none" xmlns="http://www.w3.org/2000/svg">
<path fill-rule="evenodd" clip-rule="evenodd" d="M132.716 114.395C132.392 222.632 132.238 228.741 129.856 227.888C128.47 227.391 126.231 226.027 124.877 224.854C123.328 223.511 121.066 223.067 118.762 223.651C115.389 224.505 115.107 225.209 115.107 232.767C115.107 240.419 114.733 241.316 109.404 246.437C106.267 249.451 102.22 252.128 100.411 252.388C98.0514 252.725 96.027 255.116 93.2443 260.852C88.8889 269.825 87.886 270.059 78.1609 264.37C69.0875 259.06 52.5178 260.116 52.5178 266.003C52.5178 268.493 53.3624 268.783 59.335 268.352C64.4314 267.983 67.4271 268.655 71.2055 271.014C77.8803 275.179 77.5824 276.827 70.1436 276.885C63.6573 276.937 60.9897 278.605 54.2732 286.809C51.1408 290.637 50.6329 292.131 51.9322 293.712C54.3379 296.64 55.4991 296.284 61.558 290.754L67.0098 285.78L77.0299 287.902C82.5407 289.067 87.8213 290.815 88.7651 291.786C91.2198 294.31 92.9939 325.57 90.8313 328.202C88.1148 331.508 91.745 344.981 96.8414 350.503L101.122 355.142L93.3234 354.329C87.1292 353.684 85.1162 354.013 83.5421 355.928C82.3623 357.365 82.0889 358.859 82.8659 359.622C85.8558 362.558 109.413 364.03 153.399 364.03C199.579 364.03 200.166 363.992 204.532 360.76C206.96 358.961 209.507 356.02 210.193 354.22L211.438 350.951H694.206H1176.97V437.539V524.129L1160.79 523.203C1151.88 522.694 1139.89 521.283 1134.13 520.067C1120.15 517.114 1108.58 519.875 1085.61 531.643C1075.67 536.735 1072.79 537.55 1064.5 537.614C1052.97 537.703 1049.05 534.853 1044.77 523.277C1043.27 519.214 1041.16 515.89 1040.08 515.89C1037.37 515.89 1035.35 525.205 1036.61 531.966C1039.58 547.941 1065.52 556.428 1083.67 547.36C1089.03 544.678 1089.2 544.676 1089.2 547.287C1089.2 553.492 1084.21 562.023 1076.68 568.699C1069.77 574.824 1068.56 576.728 1066.8 584.293C1062.71 601.849 1064.52 609.623 1072.71 609.623C1076.68 609.623 1077.69 609.051 1077.69 606.802C1077.69 605.25 1077.05 603.577 1076.25 603.083C1074.37 601.907 1074.4 592.77 1076.31 589.182C1077.13 587.635 1078.95 586.371 1080.37 586.371C1081.78 586.371 1088.88 583.45 1096.14 579.88C1109.65 573.243 1111.15 573.407 1107.18 581.087C1106 583.378 1105.03 586.57 1105.03 588.182C1105.03 591.78 1112.83 599.414 1120.79 603.602C1127.74 607.264 1141 607.994 1141 604.714C1141 601.893 1137.12 598.97 1134.65 599.93C1131.41 601.185 1120.86 592.745 1120.86 588.9C1120.86 587.102 1124.2 581.517 1128.27 576.489C1135.21 567.933 1135.97 567.413 1140.14 568.388C1142.59 568.962 1151.24 569.399 1159.35 569.361L1174.1 569.293V625.788V682.283H658.271H142.446V754.669V827.054L134.109 829.576C118.815 834.203 105.267 847.38 99.3334 863.397C96.8932 869.984 96.3205 874.498 96.5234 885.512C96.7579 898.255 96.5234 899.557 93.5536 901.987C89.5234 905.283 76.4673 905.559 70.5594 902.474C64.3019 899.206 60.4314 893.364 60.4314 887.186C60.4314 875.908 71.5292 869.544 76.8616 877.765C78.8227 880.788 79.7249 881.157 82.063 879.894C86.1335 877.694 85.768 870.5 81.3594 866.049C78.5724 863.233 76.345 862.481 70.781 862.481C45.5624 862.481 39.197 897.841 61.8875 911.891L67.7537 915.524L62.2947 916.407C59.2919 916.894 74.8012 917.384 96.7622 917.497L136.69 917.704V959.12V1000.54H633.956H1131.22L1130.59 1007.44C1130.14 1012.39 1130.87 1016.6 1133.19 1022.33L1136.41 1030.33L1133.04 1045.59C1131.18 1053.98 1128.86 1068.94 1127.88 1078.84C1126.39 1093.91 1125.56 1097.49 1122.8 1100.8C1115.73 1109.3 1115.18 1118.67 1120.97 1132.31C1124.28 1140.12 1124.28 1140.05 1121.65 1140.05C1120.51 1140.05 1117.75 1137.64 1115.54 1134.7C1111.91 1129.89 1111.52 1128.27 1111.63 1118.35C1111.73 1110.04 1112.87 1104.07 1116.31 1093.95C1122.01 1077.17 1122.43 1065.78 1117.62 1058.66C1113.21 1052.14 1108.69 1050.61 1104.96 1054.38L1102.08 1057.29L1105.84 1063.77C1109.26 1069.67 1109.46 1070.86 1108.12 1077.22C1107.3 1081.06 1105.4 1087.12 1103.9 1090.69C1098.97 1102.38 1095.96 1117.86 1096.8 1127.2C1098.32 1144.12 1108.11 1152.7 1127.57 1154.19C1133.42 1154.64 1138.56 1155.56 1138.98 1156.24C1139.39 1156.93 1142.61 1157.48 1146.12 1157.48H1152.51V1209.07V1260.66H672.659H192.805V1308.45C192.805 1354.75 192.717 1356.26 189.975 1356.98C184.841 1358.34 176.143 1382.5 172.647 1405.12C171.201 1414.47 166.963 1423.42 163.981 1423.42C161.759 1423.42 159.858 1418.32 159.076 1410.25C158.254 1401.78 155.67 1398.19 149.333 1396.7C146.135 1395.95 145.086 1396.45 143.52 1399.46C142.47 1401.49 139.371 1404.27 136.633 1405.65C132.293 1407.84 131.562 1409 130.935 1414.7L130.215 1421.24L122.302 1422.77C112.356 1424.7 112.037 1427.37 121.223 1431.8C124.981 1433.62 128.057 1435.71 128.057 1436.44C128.057 1437.18 131.294 1441.52 135.251 1446.09C141.267 1453.03 142.446 1455.33 142.446 1460.1C142.446 1465.4 141.408 1466.84 127.697 1480.61C119.585 1488.76 108.564 1499.22 103.204 1503.87C97.8442 1508.51 92.1651 1514.87 90.5853 1518C89.004 1521.13 88.0141 1523.69 88.3853 1523.69C88.7551 1523.69 88.4011 1525.6 87.5982 1527.92C85.6731 1533.5 76.9019 1539.2 65.8041 1542.08C48.9739 1546.44 21.8402 1540.5 13.6359 1530.65C9.1381 1525.26 9.14529 1521.25 13.669 1512.65C17.9381 1504.54 18.1841 1501.89 14.6633 1501.89C8.36687 1501.89 0 1514.59 0 1524.15C0 1535.8 13.2201 1548.35 28.7222 1551.42C32.8028 1552.22 31.6733 1552.5 23.0215 1552.83L12.2302 1553.24L26.6186 1554.28C34.5322 1554.85 46.9969 1555.4 54.3163 1555.49L67.6256 1555.66V1677.73V1799.8H374.092H680.559L680.933 1940.4L681.307 2081L681.659 1938.95L682.012 1796.9H375.538H69.0645V1676.28V1555.66L124.82 1555.52C155.486 1555.44 184.136 1554.88 188.488 1554.27C194.832 1553.39 192.622 1553.13 177.337 1552.96C161.627 1552.79 158.273 1552.38 158.273 1550.62C158.273 1549.45 156.491 1547.52 154.316 1546.32L150.359 1544.15L154.887 1544.1C159.273 1544.04 159.405 1543.85 159.093 1538.08C158.886 1534.24 159.445 1531.87 160.671 1531.39C161.717 1530.99 162.215 1530.07 161.776 1529.35C161.339 1528.64 161.736 1528.05 162.658 1528.05C163.584 1528.05 163.952 1527.04 163.479 1525.8C163.008 1524.56 163.107 1523.85 163.7 1524.21C164.294 1524.59 165.743 1524.13 166.922 1523.2C169.66 1521.04 176.978 1510.19 176.978 1508.28C176.978 1507.49 177.748 1506.06 178.69 1505.11C180.509 1503.27 181.448 1500.25 181.799 1495.11C181.917 1493.38 182.274 1492.23 182.592 1492.55C183.868 1493.84 187.014 1485.33 186.845 1481.04C186.745 1478.52 187.127 1472.87 187.694 1468.47C189.408 1455.19 189.358 1453.32 187.219 1450.67C186.089 1449.27 185.668 1448.13 186.283 1448.13C186.899 1448.13 186.555 1447.1 185.52 1445.84C184.406 1444.48 184.188 1443.14 184.983 1442.57C186.448 1441.5 186.546 1440.35 187.9 1408.16C188.404 1396.17 189.391 1385.26 190.091 1383.92C190.792 1382.57 191.366 1379.87 191.366 1377.91C191.366 1375.95 192.333 1372.47 193.516 1370.18C195.304 1366.72 195.667 1357.31 195.674 1314.07L195.683 1262.11H675.537H1155.39V1209.8V1157.48H1161.58C1164.98 1157.48 1168.38 1156.88 1169.13 1156.15C1169.88 1155.42 1172.05 1154.6 1173.95 1154.34C1175.85 1154.07 1177.89 1152.87 1178.48 1151.67C1181.83 1144.91 1188.46 1128.39 1189.69 1123.7L1191.13 1118.25L1185.49 1119.16C1182.31 1119.67 1179.85 1119.48 1179.85 1118.71C1179.85 1117.97 1181.31 1117.32 1183.09 1117.28C1190.28 1117.11 1191.18 1116.74 1190.98 1114C1190.81 1111.82 1190.22 1111.5 1188.28 1112.54C1184.93 1114.35 1183.79 1114.23 1185.02 1112.21C1185.72 1111.07 1185.41 1110.93 1184.06 1111.78C1181.71 1113.24 1177.1 1113.76 1177.23 1112.55C1177.51 1109.81 1176.74 1109.09 1175.54 1110.98C1174.33 1112.87 1174.14 1112.85 1174.12 1110.77C1174.11 1109.46 1175.1 1108 1176.33 1107.52C1177.56 1107.04 1178.19 1107.26 1177.75 1107.99C1177.29 1108.73 1177.59 1109.74 1178.39 1110.24C1179.19 1110.74 1179.85 1110.5 1179.85 1109.7C1179.85 1108.86 1181.96 1108.6 1184.89 1109.08C1191.1 1110.1 1191.33 1108.36 1185.82 1101.95C1182.09 1097.61 1181.56 1095.57 1180 1079.74C1179.06 1070.15 1176.8 1055.34 1174.97 1046.84C1171.78 1031.97 1171.75 1031.14 1174.08 1024.92C1176.6 1018.22 1179.15 988.184 1177.56 983.986C1176.13 980.234 1172.15 981.26 1166.9 986.731C1162.47 991.354 1161.28 991.817 1153.95 991.817C1146.6 991.817 1145.44 991.358 1140.95 986.674C1137.89 983.486 1134.91 981.691 1133.11 981.952C1130.65 982.308 1130.15 983.631 1129.78 990.727L1129.35 999.083H634.458H139.568V958.393V917.704L175.179 917.423C194.766 917.269 206.745 916.912 201.798 916.628C196.795 916.34 192.805 915.434 192.805 914.584C192.805 913.744 190.7 911.071 188.129 908.644C183.552 904.327 183.453 903.966 183.457 891.713C183.461 878.281 184.395 875.515 194.188 859.946C199.821 850.988 201.208 841.655 198.56 830.512C196.545 822.023 197.202 820.686 204.604 818.233C207.343 817.324 210.33 814.759 211.976 811.904C214.703 807.172 214.703 807.056 211.988 803.911C210.471 802.156 208.162 798.324 206.855 795.394C205.549 792.466 203.147 789.642 201.52 789.12C199.273 788.4 198.56 786.942 198.56 783.062C198.56 777.217 195.645 776.957 194.067 782.662C193.258 785.589 193.067 785.262 192.949 780.738C192.87 777.742 192.319 775.292 191.726 775.295C191.133 775.298 185.989 780.038 180.297 785.83C173.117 793.136 168.785 799.031 166.153 805.08C158.755 822.085 157.666 823.402 149.28 825.484L145.323 826.466V755.101V683.736H660.429H1175.54L1175.58 625.971C1175.62 577.947 1175.95 568.63 1177.52 570.72C1178.56 572.104 1180.18 578.812 1181.12 585.629C1182.12 592.825 1184.1 600.181 1185.85 603.17C1188.61 607.903 1189.33 608.283 1194.79 607.88C1201.49 607.386 1202.92 604.058 1197.46 601.643C1192.98 599.656 1192.42 596.823 1194.32 585.803L1195.96 576.289L1201.21 580.505C1204.1 582.824 1209.38 585.845 1212.95 587.22C1220.2 590.019 1225.89 594.583 1225.89 597.59C1225.89 600.621 1232.58 606.716 1235.9 606.716C1240.27 606.716 1239.66 601.867 1233.77 589.821C1230.15 582.436 1227.04 578.287 1222.97 575.442C1219.83 573.243 1217.19 570.716 1217.1 569.825C1216.47 563.387 1218.98 557.13 1227.83 543.081C1231.48 537.282 1236.96 533.583 1240.8 534.314C1247.48 535.583 1253.83 527.109 1249.68 522.475C1248.47 521.126 1247.48 518.944 1247.48 517.625C1247.48 516.309 1245.86 514.16 1243.88 512.85C1241.06 510.987 1240.28 509.242 1240.28 504.824C1240.28 501.719 1239.83 499.178 1239.28 499.178C1238.73 499.178 1236.44 500.96 1234.19 503.137L1230.1 507.094L1225.6 502.224C1221.36 497.647 1220.97 497.513 1219.18 499.997C1218.12 501.451 1217.26 504.43 1217.26 506.619C1217.26 509.146 1215.48 512.506 1212.38 515.828C1207.93 520.59 1206.99 520.978 1201.87 520.151C1198.37 519.587 1193.31 520.121 1188.5 521.562C1184.25 522.84 1180.24 523.883 1179.59 523.883C1178.94 523.883 1178.41 484.319 1178.41 435.964V348.044H696C215.369 348.044 213.579 348.034 211.124 345.138C208.061 341.525 205.755 341.403 205.755 344.853C205.755 346.295 203.451 349.727 200.637 352.482L195.519 357.49L180.414 357.075C163.077 356.596 151.965 354.777 147.225 351.642C140.952 347.489 139.29 342.935 138.093 326.611C136.628 306.626 134.33 293.889 130.61 285.132C128.189 279.437 127.949 277.504 129.293 274.528C130.195 272.525 130.935 269.125 130.935 266.973C130.935 261.767 140.03 248.642 146.174 244.981C151.925 241.554 152.516 239.053 147.575 239.053C142.388 239.053 137.253 236.724 135.807 233.716C135.106 232.255 134.201 179.072 133.795 115.53L133.058 0L132.716 114.395ZM139.568 358.943C141.115 360.825 140.5 361.116 135.067 361.072C128.887 361.022 128.84 360.984 132.374 358.943C136.945 356.304 137.399 356.304 139.568 358.943ZM203.86 800.267C203.401 801.425 203.06 801.08 202.991 799.387C202.929 797.856 203.268 796.998 203.746 797.481C204.224 797.963 204.275 799.217 203.86 800.267ZM168.798 910.801C170.979 916.021 170.958 916.25 168.271 916.25C166.729 916.25 165.467 915.269 165.467 914.071C165.467 910.568 160.045 906.082 155.755 906.034C152.372 905.996 152.163 905.774 154.316 904.508C157.458 902.66 161.114 895.682 161.26 891.255C161.32 889.417 162.529 891.836 163.945 896.632C165.361 901.428 167.545 907.804 168.798 910.801Z" fill="black"/>
</svg>
